HIERARCHY
ROOT Hips
{
	OFFSET 49.170502 -11.355215 95.699699
	CHANNELS 6 Xposition Yposition Zposition Xrotation Yrotation Zrotation
	JOINT spine
	{
		OFFSET 0.000000 -0.458069 7.965683
		CHANNELS 3 Xrotation Yrotation Zrotation
		JOINT spine1
		{
			OFFSET 0.000000 -0.000001 10.243103
			CHANNELS 3 Xrotation Yrotation Zrotation
			JOINT spine2
			{
				OFFSET 0.000000 -0.000002 9.814751
				CHANNELS 3 Xrotation Yrotation Zrotation
				JOINT Neck
				{
					OFFSET 0.000000 -1.201384 25.198608
					CHANNELS 3 Xrotation Yrotation Zrotation
					JOINT Head
					{
						OFFSET 0.000000 -0.000002 7.613144
						CHANNELS 3 Xrotation Yrotation Zrotation
						End Site
						{
							OFFSET 0.000000 6.077317 18.428101
						}
					}
				}
				JOINT RightShoulder
				{
					OFFSET -4.132698 0.575449 10.599197
					CHANNELS 3 Xrotation Yrotation Zrotation
					JOINT RightArm
					{
						OFFSET 0.000000 -0.000002 13.901794
						CHANNELS 3 Xrotation Yrotation Zrotation
						JOINT RightArmRoll
						{
							OFFSET 0.000000 -0.000002 7.017883
							CHANNELS 3 Xrotation Yrotation Zrotation
							JOINT RightForeArm
							{
								OFFSET 0.000000 -0.000003 20.440598
								CHANNELS 3 Xrotation Yrotation Zrotation
								JOINT RightForeArmRoll
								{
									OFFSET 0.000000 -0.000001 7.875153
									CHANNELS 3 Xrotation Yrotation Zrotation
									JOINT RightHand
									{
										OFFSET 0.000000 -0.000003 15.803696
										CHANNELS 3 Xrotation Yrotation Zrotation
										End Site
										{
											OFFSET 0.000000 0.000000 0.100006
										}
									}
								}
							}
						}
					}
				}
				JOINT LeftShoulder
				{
					OFFSET 4.132698 0.575449 10.599197
					CHANNELS 3 Xrotation Yrotation Zrotation
					JOINT LeftArm
					{
						OFFSET 0.000000 -0.000002 13.901794
						CHANNELS 3 Xrotation Yrotation Zrotation
						JOINT LeftArmRoll
						{
							OFFSET 0.000000 -0.000002 7.017883
							CHANNELS 3 Xrotation Yrotation Zrotation
							JOINT LeftForeArm
							{
								OFFSET 0.000000 -0.000003 20.440598
								CHANNELS 3 Xrotation Yrotation Zrotation
								JOINT LeftForeArmRoll
								{
									OFFSET 0.000000 -0.000001 7.875153
									CHANNELS 3 Xrotation Yrotation Zrotation
									JOINT LeftHand
									{
										OFFSET 0.000000 -0.000003 15.803696
										CHANNELS 3 Xrotation Yrotation Zrotation
										End Site
										{
											OFFSET 0.000000 0.000000 0.100006
										}
									}
								}
							}
						}
					}
				}
			}
		}
	}
	JOINT RightUpLeg
	{
		OFFSET -7.060478 1.086100 -1.294701
		CHANNELS 3 Xrotation Yrotation Zrotation
		JOINT RightUpLegRoll
		{
			OFFSET 0.000000 -0.000003 18.530800
			CHANNELS 3 Xrotation Yrotation Zrotation
			JOINT RightLeg
			{
				OFFSET 0.000000 0.000004 -22.947601
				CHANNELS 3 Xrotation Yrotation Zrotation
				JOINT RightLegRoll
				{
					OFFSET 0.000000 -0.000004 23.022598
					CHANNELS 3 Xrotation Yrotation Zrotation
					JOINT RightFoot
					{
						OFFSET 0.000000 -0.000004 19.162498
						CHANNELS 3 Xrotation Yrotation Zrotation
						JOINT RightToeBase
						{
							OFFSET 0.000000 -0.000002 16.018799
							CHANNELS 3 Xrotation Yrotation Zrotation
							End Site
							{
								OFFSET 0.006790 0.894204 7.757828
							}
						}
					}
				}
			}
		}
	}
	JOINT LeftUpLeg
	{
		OFFSET 7.060478 1.086100 -1.294701
		CHANNELS 3 Xrotation Yrotation Zrotation
		JOINT LeftUpLegRoll
		{
			OFFSET 0.000000 -0.000003 18.530899
			CHANNELS 3 Xrotation Yrotation Zrotation
			JOINT LeftLeg
			{
				OFFSET 0.000000 -0.000004 22.947495
				CHANNELS 3 Xrotation Yrotation Zrotation
				JOINT LeftLegRoll
				{
					OFFSET 0.000000 -0.000004 23.235504
					CHANNELS 3 Xrotation Yrotation Zrotation
					JOINT LeftFoot
					{
						OFFSET 0.000000 -0.000003 18.949600
						CHANNELS 3 Xrotation Yrotation Zrotation
						JOINT LeftToeBase
						{
							OFFSET 0.000000 -0.000003 16.018799
							CHANNELS 3 Xrotation Yrotation Zrotation
							End Site
							{
								OFFSET -0.030430 0.894206 7.757812
							}
						}
					}
				}
			}
		}
	}
}
MOTION
Frames: 5
Frame Time: 0.041667
49.091202 -8.210442 95.544304 -4.769808 2.420709 -4.262923 -1.442128 -0.874856 0.028206 1.121854 -1.735448 0.042652 2.767239 -1.734796 0.063393 23.997754 -0.496924 13.715120 -8.965229 6.172704 13.481246 15.215452 -64.580634 16.454607 -21.122324 -106.323772 -47.871034 0.000002 -0.000003 -0.000008 65.335459 -13.876887 6.359864 -0.000000 0.000012 -3.007080 -5.000212 -7.998686 0.000131 -7.551747 74.410075 10.000341 -53.803664 99.010169 87.475708 -0.000001 -0.000000 -0.000005 70.537604 15.967905 -7.708577 0.000010 -0.000014 3.003451 -4.999811 7.998782 0.000063 4.814049 -177.563622 -2.606433 -179.999991 0.000005 -1.206001 175.574452 -2.149577 -0.584328 0.000003 -0.000003 0.048951 69.031950 6.958955 1.942590 25.459986 -7.352431 0.004429 4.467596 171.603216 -2.155196 -0.000020 -0.000004 -1.226910 -10.316973 2.095367 0.449464 -0.000006 0.000001 -0.331107 73.824878 -6.839385 -1.894306 25.512992 7.351868 -0.082428 
49.077999 -8.223106 95.540314 -4.764036 2.428273 -4.269427 -1.443549 -0.875453 0.027812 1.118845 -1.737689 0.041969 2.764231 -1.737048 0.062740 24.012286 -0.505490 13.701585 -8.978787 6.186802 13.467356 15.211304 -64.598870 16.446329 -21.154160 -106.275093 -47.962948 0.000001 -0.000003 -0.000010 65.403016 -13.848031 6.348651 0.000001 0.000012 -3.007078 -5.000214 -7.998685 0.000131 -7.498673 74.405547 9.942438 -53.708527 98.993948 87.398561 -0.000001 0.000000 -0.000008 70.551585 15.968236 -7.711136 0.000008 -0.000013 3.003451 -4.999809 7.998778 0.000061 4.818812 -177.577583 -2.615096 -179.999991 0.000005 -1.206002 175.580763 -2.149595 -0.584091 0.000003 -0.000003 0.048952 69.033535 6.958968 1.942592 25.459991 -7.352431 0.004429 4.470641 171.587316 -2.166253 -0.000020 -0.000004 -1.226460 -10.317376 2.095473 0.449447 -0.000006 0.000001 -0.331079 73.830438 -6.839396 -1.894369 25.513594 7.351868 -0.083543 
49.065899 -8.228811 95.541405 -4.758201 2.435719 -4.275908 -1.444928 -0.875987 0.027395 1.115915 -1.739840 0.041276 2.761302 -1.739209 0.062078 24.027323 -0.513394 13.687668 -8.993270 6.199904 13.453214 15.206906 -64.616936 16.437805 -21.183618 -106.228266 -48.052280 0.000000 -0.000004 -0.000009 65.470273 -13.819472 6.337495 0.000002 0.000011 -3.007080 -5.000215 -7.998687 0.000128 -7.447038 74.400650 9.886083 -53.611579 98.978095 87.319461 -0.000001 0.000000 -0.000006 70.564658 15.969570 -7.714592 0.000009 -0.000015 3.003452 -4.999809 7.998779 0.000063 4.823539 -177.591557 -2.623762 -179.999991 0.000004 -1.206002 175.587156 -2.149613 -0.584849 0.000003 -0.000003 0.048952 69.035126 6.958981 1.942594 25.459991 -7.352431 0.004429 4.473737 171.571388 -2.177161 -0.000020 -0.000004 -1.226010 -10.317375 2.095502 0.449418 -0.000005 0.000001 -0.331037 73.835793 -6.839427 -1.894345 25.514301 7.351869 -0.084663 
49.051201 -8.235016 95.541008 -4.752319 2.443064 -4.282380 -1.446268 -0.876478 0.026964 1.113035 -1.741931 0.040577 2.758424 -1.741311 0.061408 24.042652 -0.520840 13.673353 -9.008393 6.212321 13.438743 15.202352 -64.634907 16.429122 -21.213142 -106.181431 -48.141769 0.000002 -0.000002 -0.000010 65.537338 -13.791235 6.326508 0.000002 0.000013 -3.007079 -5.000210 -7.998689 0.000131 -7.396443 74.395418 9.830824 -53.513125 98.962522 87.238639 -0.000000 0.000001 -0.000006 70.577055 15.971672 -7.718714 0.000009 -0.000016 3.003449 -4.999813 7.998777 0.000062 4.828219 -177.606529 -2.632507 -179.999991 0.000005 -1.206002 175.593563 -2.150626 -0.584685 0.000003 -0.000003 0.048952 69.036800 6.958928 1.942680 25.459988 -7.352430 0.004429 4.476865 171.555460 -2.187945 -0.000020 -0.000004 -1.225550 -10.317172 2.095483 0.449386 -0.000005 0.000001 -0.330985 73.841127 -6.839428 -1.894422 25.514906 7.351871 -0.085758 
49.034698 -8.242015 95.539505 -4.746409 2.450371 -4.288847 -1.447600 -0.876942 0.026524 1.110195 -1.743993 0.039876 2.755576 -1.743383 0.060734 24.058180 -0.528025 13.658830 -9.023881 6.224338 13.424156 15.197704 -64.652795 16.420342 -21.242778 -106.134603 -48.231367 0.000002 -0.000003 -0.000010 65.604247 -13.763127 6.315431 -0.000001 0.000011 -3.007079 -5.000212 -7.998682 0.000131 -7.346458 74.390035 9.776232 -53.414057 98.947093 87.157298 -0.000001 0.000000 -0.000005 70.589001 15.974202 -7.723097 0.000010 -0.000014 3.003450 -4.999811 7.998782 0.000063 4.832883 -177.620476 -2.641159 -179.999991 0.000005 -1.206001 175.600011 -2.150645 -0.584443 0.000003 -0.000003 0.048952 69.038384 6.958940 1.942583 25.459988 -7.352429 0.004428 4.480009 171.539559 -2.198674 -0.000020 -0.000004 -1.225099 -10.316772 2.095437 0.449349 -0.000005 0.000001 -0.330928 73.846359 -6.839440 -1.894505 25.515517 7.351872 -0.086845 
